<?xml version="1.0" encoding="UTF-8"?>
<svg width="33px" height="32px" viewBox="0 0 33 32" version="1.1" xmlns="http://www.w3.org/2000/svg" xmlns:xlink="http://www.w3.org/1999/xlink">
    <!-- Generator: Sketch 58 (84663) - https://sketch.com -->
    <title>icons8-circled_down_2_filled</title>
    <desc>Created with Sketch.</desc>
    <g id="Page-1" stroke="none" stroke-width="1" fill="none" fill-rule="evenodd">
        <g id="1920-2" transform="translate(-944.000000, -940.000000)" fill="#FFFFFF" fill-rule="nonzero">
            <g id="icons8-circled_down_2_filled" transform="translate(944.000000, 940.000000)">
                <path d="M16.6956522,0 C7.87228243,0 0.695652174,7.17663026 0.695652174,16 C0.695652174,24.8233697 7.87228243,32 16.6956522,32 C25.516304,32 32.6956522,24.8233697 32.6956522,16 C32.6956522,7.17663026 25.516304,0 16.6956522,0 Z M22.7119562,19.1548911 L17.1467388,24.7201085 C17.0842393,24.7853259 17.0054344,24.8342393 16.9211958,24.8695652 C16.8369565,24.9048911 16.7445649,24.923913 16.6548911,24.923913 C16.5652174,24.923913 16.4728257,24.9048911 16.3885871,24.8695652 C16.3043478,24.8342393 16.2282609,24.7853259 16.1630435,24.7201085 L10.5978261,19.1548911 C10.326087,18.883152 10.326087,18.442935 10.5978261,18.1711958 C10.8695652,17.8994567 11.3097823,17.8994567 11.5815214,18.1711958 L15.959239,22.5489134 L15.959239,7.5326087 C15.959239,7.1494567 16.2717391,6.83695652 16.6548911,6.83695652 C17.0380431,6.83695652 17.3505433,7.1494567 17.3505433,7.5326087 L17.3505433,22.5489134 L21.7282609,18.1711958 C22,17.8994567 22.440217,17.8994567 22.7119562,18.1711958 C22.9836953,18.442935 22.9836953,18.883152 22.7119562,19.1548911 Z" id="Shape"></path>
            </g>
        </g>
    </g>
</svg>